<mxfile host="Electron" modified="2024-04-04T16:55:36.718Z" agent="Mozilla/5.0 (Windows NT 10.0; Win64; x64) AppleWebKit/537.36 (KHTML, like Gecko) draw.io/22.1.2 Chrome/114.0.5735.289 Electron/25.9.4 Safari/537.36" etag="8j12twScZFHBkzhcNGIl" version="22.1.2" type="device">
  <diagram name="Pagina-1" id="-q7aHj3O5pkfv6M5Wmkw">
    <mxGraphModel dx="1687" dy="1011" grid="1" gridSize="10" guides="1" tooltips="1" connect="1" arrows="1" fold="1" page="1" pageScale="1" pageWidth="827" pageHeight="1169" math="0" shadow="0">
      <root>
        <mxCell id="0" />
        <mxCell id="1" parent="0" />
        <mxCell id="ivR9pGTx3db8OLxC2Kuk-2" value="java.sql&amp;nbsp;&lt;br&gt;&lt;br&gt;libreria" style="html=1;whiteSpace=wrap;" vertex="1" parent="1">
          <mxGeometry x="358" y="200" width="110" height="50" as="geometry" />
        </mxCell>
        <mxCell id="ivR9pGTx3db8OLxC2Kuk-3" value="Tubia Tommaso, Perazzetta Davide -- TPS progettoÂ " style="text;strokeColor=none;fillColor=none;align=center;verticalAlign=middle;whiteSpace=wrap;rounded=0;fontFamily=Verdana;fontStyle=1;horizontal=1;fontSize=19;labelBackgroundColor=none;labelBorderColor=none;html=1;" vertex="1" parent="1">
          <mxGeometry x="20" y="10" width="800" height="60" as="geometry" />
        </mxCell>
        <mxCell id="ivR9pGTx3db8OLxC2Kuk-4" value="database&lt;br&gt;&lt;br&gt;mysql locale" style="html=1;whiteSpace=wrap;" vertex="1" parent="1">
          <mxGeometry x="334" y="350" width="158" height="50" as="geometry" />
        </mxCell>
        <mxCell id="ivR9pGTx3db8OLxC2Kuk-5" value="Programma java&lt;br&gt;&lt;br&gt;eseguibile" style="html=1;whiteSpace=wrap;" vertex="1" parent="1">
          <mxGeometry x="358" y="70" width="110" height="50" as="geometry" />
        </mxCell>
        <mxCell id="ivR9pGTx3db8OLxC2Kuk-7" value="websrvjavaxml&lt;br&gt;&lt;br&gt;nome database" style="html=1;whiteSpace=wrap;" vertex="1" parent="1">
          <mxGeometry x="40" y="470" width="160" height="65" as="geometry" />
        </mxCell>
        <mxCell id="ivR9pGTx3db8OLxC2Kuk-8" value="" style="endArrow=classic;html=1;rounded=0;entryX=0.82;entryY=-0.061;entryDx=0;entryDy=0;entryPerimeter=0;exitX=0.25;exitY=1;exitDx=0;exitDy=0;" edge="1" parent="1" source="ivR9pGTx3db8OLxC2Kuk-5" target="ivR9pGTx3db8OLxC2Kuk-2">
          <mxGeometry width="50" height="50" relative="1" as="geometry">
            <mxPoint x="388" y="170" as="sourcePoint" />
            <mxPoint x="438" y="120" as="targetPoint" />
          </mxGeometry>
        </mxCell>
        <mxCell id="ivR9pGTx3db8OLxC2Kuk-9" value="" style="endArrow=classic;html=1;rounded=0;entryX=0.444;entryY=-0.04;entryDx=0;entryDy=0;entryPerimeter=0;exitX=0.896;exitY=1.043;exitDx=0;exitDy=0;exitPerimeter=0;" edge="1" parent="1" source="ivR9pGTx3db8OLxC2Kuk-2" target="ivR9pGTx3db8OLxC2Kuk-4">
          <mxGeometry width="50" height="50" relative="1" as="geometry">
            <mxPoint x="390" y="260" as="sourcePoint" />
            <mxPoint x="399" y="317" as="targetPoint" />
            <Array as="points" />
          </mxGeometry>
        </mxCell>
        <mxCell id="ivR9pGTx3db8OLxC2Kuk-10" value="" style="endArrow=classic;html=1;rounded=0;entryX=0.5;entryY=0;entryDx=0;entryDy=0;exitX=0;exitY=0.5;exitDx=0;exitDy=0;" edge="1" parent="1" source="ivR9pGTx3db8OLxC2Kuk-4" target="ivR9pGTx3db8OLxC2Kuk-7">
          <mxGeometry width="50" height="50" relative="1" as="geometry">
            <mxPoint x="155" y="323" as="sourcePoint" />
            <mxPoint x="140" y="400" as="targetPoint" />
            <Array as="points">
              <mxPoint x="120" y="375" />
            </Array>
          </mxGeometry>
        </mxCell>
        <mxCell id="ivR9pGTx3db8OLxC2Kuk-11" value="" style="endArrow=none;html=1;rounded=0;" edge="1" parent="1">
          <mxGeometry width="50" height="50" relative="1" as="geometry">
            <mxPoint x="80" y="960" as="sourcePoint" />
            <mxPoint x="80" y="650" as="targetPoint" />
          </mxGeometry>
        </mxCell>
        <mxCell id="ivR9pGTx3db8OLxC2Kuk-12" value="" style="endArrow=classic;html=1;rounded=0;" edge="1" parent="1">
          <mxGeometry width="50" height="50" relative="1" as="geometry">
            <mxPoint x="80" y="685" as="sourcePoint" />
            <mxPoint x="150" y="685" as="targetPoint" />
          </mxGeometry>
        </mxCell>
        <mxCell id="ivR9pGTx3db8OLxC2Kuk-13" value="id &lt;span style=&quot;white-space: pre;&quot;&gt;&#x9;&lt;span style=&quot;white-space: pre;&quot;&gt;&#x9;&lt;/span&gt;&lt;span style=&quot;white-space: pre;&quot;&gt;&#x9;&lt;/span&gt;&lt;/span&gt;int(11) primary key" style="text;html=1;strokeColor=none;fillColor=none;align=left;verticalAlign=middle;whiteSpace=wrap;rounded=0;fontFamily=Verdana;fontSize=14;" vertex="1" parent="1">
          <mxGeometry x="161" y="670" width="279" height="35" as="geometry" />
        </mxCell>
        <mxCell id="ivR9pGTx3db8OLxC2Kuk-14" value="persona_generica" style="html=1;whiteSpace=wrap;" vertex="1" parent="1">
          <mxGeometry x="20" y="610" width="200" height="45" as="geometry" />
        </mxCell>
        <mxCell id="ivR9pGTx3db8OLxC2Kuk-15" value="" style="endArrow=none;html=1;rounded=0;" edge="1" parent="1">
          <mxGeometry width="50" height="50" relative="1" as="geometry">
            <mxPoint x="1070" y="1000" as="sourcePoint" />
            <mxPoint x="1070" y="650" as="targetPoint" />
          </mxGeometry>
        </mxCell>
        <mxCell id="ivR9pGTx3db8OLxC2Kuk-16" value="" style="endArrow=classic;html=1;rounded=0;" edge="1" parent="1">
          <mxGeometry width="50" height="50" relative="1" as="geometry">
            <mxPoint x="1070" y="685" as="sourcePoint" />
            <mxPoint x="990" y="685" as="targetPoint" />
          </mxGeometry>
        </mxCell>
        <mxCell id="ivR9pGTx3db8OLxC2Kuk-17" value="int (11) primary key&amp;nbsp; &amp;nbsp; &amp;nbsp; &amp;nbsp; &amp;nbsp; &amp;nbsp; &amp;nbsp; &amp;nbsp; &amp;nbsp; &amp;nbsp; &amp;nbsp; &amp;nbsp; &amp;nbsp;id" style="text;html=1;strokeColor=none;fillColor=none;align=right;verticalAlign=middle;whiteSpace=wrap;rounded=0;fontFamily=Verdana;fontSize=14;" vertex="1" parent="1">
          <mxGeometry x="650" y="670" width="330" height="35" as="geometry" />
        </mxCell>
        <mxCell id="ivR9pGTx3db8OLxC2Kuk-18" value="azienda_generica" style="html=1;whiteSpace=wrap;" vertex="1" parent="1">
          <mxGeometry x="970" y="610" width="200" height="45" as="geometry" />
        </mxCell>
        <mxCell id="ivR9pGTx3db8OLxC2Kuk-19" value="" style="endArrow=classic;html=1;rounded=0;exitX=1;exitY=0.5;exitDx=0;exitDy=0;entryX=0.5;entryY=0;entryDx=0;entryDy=0;" edge="1" parent="1" source="ivR9pGTx3db8OLxC2Kuk-7" target="ivR9pGTx3db8OLxC2Kuk-18">
          <mxGeometry width="50" height="50" relative="1" as="geometry">
            <mxPoint x="240" y="510" as="sourcePoint" />
            <mxPoint x="290" y="460" as="targetPoint" />
            <Array as="points">
              <mxPoint x="1070" y="500" />
            </Array>
          </mxGeometry>
        </mxCell>
        <mxCell id="ivR9pGTx3db8OLxC2Kuk-21" value="" style="endArrow=classic;html=1;rounded=0;exitX=0.427;exitY=0.972;exitDx=0;exitDy=0;exitPerimeter=0;entryX=0.433;entryY=-0.041;entryDx=0;entryDy=0;entryPerimeter=0;" edge="1" parent="1" source="ivR9pGTx3db8OLxC2Kuk-7" target="ivR9pGTx3db8OLxC2Kuk-14">
          <mxGeometry width="50" height="50" relative="1" as="geometry">
            <mxPoint x="540" y="800" as="sourcePoint" />
            <mxPoint x="590" y="750" as="targetPoint" />
          </mxGeometry>
        </mxCell>
        <mxCell id="ivR9pGTx3db8OLxC2Kuk-22" value="" style="endArrow=classic;html=1;rounded=0;" edge="1" parent="1">
          <mxGeometry width="50" height="50" relative="1" as="geometry">
            <mxPoint x="80" y="735" as="sourcePoint" />
            <mxPoint x="150" y="735" as="targetPoint" />
          </mxGeometry>
        </mxCell>
        <mxCell id="ivR9pGTx3db8OLxC2Kuk-23" value="nome&lt;span style=&quot;white-space: pre;&quot;&gt;&#x9;&lt;span style=&quot;white-space: pre;&quot;&gt;&#x9;&lt;/span&gt;v&lt;/span&gt;archar(20)" style="text;html=1;strokeColor=none;fillColor=none;align=left;verticalAlign=middle;whiteSpace=wrap;rounded=0;fontFamily=Verdana;fontSize=14;" vertex="1" parent="1">
          <mxGeometry x="161" y="720" width="279" height="35" as="geometry" />
        </mxCell>
        <mxCell id="ivR9pGTx3db8OLxC2Kuk-24" value="" style="endArrow=classic;html=1;rounded=0;" edge="1" parent="1">
          <mxGeometry width="50" height="50" relative="1" as="geometry">
            <mxPoint x="80" y="785" as="sourcePoint" />
            <mxPoint x="150" y="785" as="targetPoint" />
          </mxGeometry>
        </mxCell>
        <mxCell id="ivR9pGTx3db8OLxC2Kuk-25" value="codice&lt;br&gt;fiscale&lt;span style=&quot;white-space: pre;&quot;&gt;&#x9;&lt;span style=&quot;white-space: pre;&quot;&gt;&#x9;&lt;/span&gt;v&lt;/span&gt;archar(16)" style="text;html=1;strokeColor=none;fillColor=none;align=left;verticalAlign=middle;whiteSpace=wrap;rounded=0;fontFamily=Verdana;fontSize=14;" vertex="1" parent="1">
          <mxGeometry x="161" y="770" width="279" height="35" as="geometry" />
        </mxCell>
        <mxCell id="ivR9pGTx3db8OLxC2Kuk-26" value="" style="endArrow=classic;html=1;rounded=0;" edge="1" parent="1">
          <mxGeometry width="50" height="50" relative="1" as="geometry">
            <mxPoint x="80" y="845" as="sourcePoint" />
            <mxPoint x="150" y="845" as="targetPoint" />
          </mxGeometry>
        </mxCell>
        <mxCell id="ivR9pGTx3db8OLxC2Kuk-27" value="partita&lt;br&gt;iva&lt;span style=&quot;white-space: pre;&quot;&gt;&#x9;&lt;span style=&quot;white-space: pre;&quot;&gt;&#x9;&lt;span style=&quot;white-space: pre;&quot;&gt;&#x9;&lt;/span&gt;b&lt;/span&gt;i&lt;/span&gt;gint(16)" style="text;html=1;strokeColor=none;fillColor=none;align=left;verticalAlign=middle;whiteSpace=wrap;rounded=0;fontFamily=Verdana;fontSize=14;" vertex="1" parent="1">
          <mxGeometry x="161" y="830" width="279" height="35" as="geometry" />
        </mxCell>
        <mxCell id="ivR9pGTx3db8OLxC2Kuk-28" value="" style="endArrow=classic;html=1;rounded=0;" edge="1" parent="1">
          <mxGeometry width="50" height="50" relative="1" as="geometry">
            <mxPoint x="80" y="907" as="sourcePoint" />
            <mxPoint x="150" y="907" as="targetPoint" />
          </mxGeometry>
        </mxCell>
        <mxCell id="ivR9pGTx3db8OLxC2Kuk-29" value="telefono&lt;span style=&quot;white-space: pre;&quot;&gt;&#x9;&lt;span style=&quot;white-space: pre;&quot;&gt;&#x9;&lt;/span&gt;i&lt;/span&gt;nt(16)" style="text;html=1;strokeColor=none;fillColor=none;align=left;verticalAlign=middle;whiteSpace=wrap;rounded=0;fontFamily=Verdana;fontSize=14;" vertex="1" parent="1">
          <mxGeometry x="161" y="890" width="279" height="35" as="geometry" />
        </mxCell>
        <mxCell id="ivR9pGTx3db8OLxC2Kuk-30" value="" style="endArrow=classic;html=1;rounded=0;" edge="1" parent="1">
          <mxGeometry width="50" height="50" relative="1" as="geometry">
            <mxPoint x="1070" y="735" as="sourcePoint" />
            <mxPoint x="990" y="735" as="targetPoint" />
          </mxGeometry>
        </mxCell>
        <mxCell id="ivR9pGTx3db8OLxC2Kuk-31" value="varchar(50)&amp;nbsp; &amp;nbsp; &amp;nbsp; &amp;nbsp; &amp;nbsp; &amp;nbsp; &amp;nbsp; &amp;nbsp; &amp;nbsp; &amp;nbsp; nome" style="text;html=1;strokeColor=none;fillColor=none;align=right;verticalAlign=middle;whiteSpace=wrap;rounded=0;fontFamily=Verdana;fontSize=14;" vertex="1" parent="1">
          <mxGeometry x="700" y="720" width="280" height="35" as="geometry" />
        </mxCell>
        <mxCell id="ivR9pGTx3db8OLxC2Kuk-32" value="" style="endArrow=classic;html=1;rounded=0;" edge="1" parent="1">
          <mxGeometry width="50" height="50" relative="1" as="geometry">
            <mxPoint x="1070" y="786.91" as="sourcePoint" />
            <mxPoint x="990" y="786.91" as="targetPoint" />
          </mxGeometry>
        </mxCell>
        <mxCell id="ivR9pGTx3db8OLxC2Kuk-33" value="float&amp;nbsp; &amp;nbsp; &amp;nbsp; &amp;nbsp; &amp;nbsp; &amp;nbsp; &amp;nbsp; &amp;nbsp; &amp;nbsp; &amp;nbsp; valore" style="text;html=1;strokeColor=none;fillColor=none;align=right;verticalAlign=middle;whiteSpace=wrap;rounded=0;fontFamily=Verdana;fontSize=14;" vertex="1" parent="1">
          <mxGeometry x="690" y="780" width="290" height="35" as="geometry" />
        </mxCell>
        <mxCell id="ivR9pGTx3db8OLxC2Kuk-34" value="" style="endArrow=classic;html=1;rounded=0;" edge="1" parent="1">
          <mxGeometry width="50" height="50" relative="1" as="geometry">
            <mxPoint x="1070" y="857" as="sourcePoint" />
            <mxPoint x="990" y="857" as="targetPoint" />
          </mxGeometry>
        </mxCell>
        <mxCell id="ivR9pGTx3db8OLxC2Kuk-35" value="varchar(20)&amp;nbsp; &amp;nbsp; &amp;nbsp; &amp;nbsp; &amp;nbsp; &amp;nbsp; proprietario" style="text;html=1;strokeColor=none;fillColor=none;align=right;verticalAlign=middle;whiteSpace=wrap;rounded=0;fontFamily=Verdana;fontSize=14;" vertex="1" parent="1">
          <mxGeometry x="690" y="840" width="280" height="35" as="geometry" />
        </mxCell>
        <mxCell id="ivR9pGTx3db8OLxC2Kuk-36" value="" style="endArrow=classic;html=1;rounded=0;" edge="1" parent="1">
          <mxGeometry width="50" height="50" relative="1" as="geometry">
            <mxPoint x="1070" y="927.08" as="sourcePoint" />
            <mxPoint x="990" y="927.08" as="targetPoint" />
          </mxGeometry>
        </mxCell>
        <mxCell id="ivR9pGTx3db8OLxC2Kuk-37" value="&amp;nbsp;emun(primario,secondario,terziario,altro)&amp;nbsp; &amp;nbsp; &amp;nbsp; &amp;nbsp; &amp;nbsp; &amp;nbsp; &amp;nbsp; &amp;nbsp; &amp;nbsp;settore" style="text;html=1;strokeColor=none;fillColor=none;align=right;verticalAlign=middle;whiteSpace=wrap;rounded=0;fontFamily=Verdana;fontSize=14;" vertex="1" parent="1">
          <mxGeometry x="525" y="910" width="450" height="35" as="geometry" />
        </mxCell>
        <mxCell id="ivR9pGTx3db8OLxC2Kuk-38" value="" style="endArrow=classic;html=1;rounded=0;" edge="1" parent="1">
          <mxGeometry width="50" height="50" relative="1" as="geometry">
            <mxPoint x="1070" y="997.08" as="sourcePoint" />
            <mxPoint x="990" y="997.08" as="targetPoint" />
          </mxGeometry>
        </mxCell>
        <mxCell id="ivR9pGTx3db8OLxC2Kuk-39" value="int(11)&amp;nbsp; &amp;nbsp; &amp;nbsp; &amp;nbsp; id_proprietario" style="text;html=1;strokeColor=none;fillColor=none;align=right;verticalAlign=middle;whiteSpace=wrap;rounded=0;fontFamily=Verdana;fontSize=14;" vertex="1" parent="1">
          <mxGeometry x="735" y="980" width="240" height="35" as="geometry" />
        </mxCell>
        <mxCell id="ivR9pGTx3db8OLxC2Kuk-40" value="" style="edgeStyle=elbowEdgeStyle;elbow=horizontal;endArrow=classic;html=1;curved=0;rounded=0;endSize=8;startSize=8;exitX=1;exitY=0.5;exitDx=0;exitDy=0;" edge="1" parent="1" source="ivR9pGTx3db8OLxC2Kuk-13" target="ivR9pGTx3db8OLxC2Kuk-39">
          <mxGeometry width="50" height="50" relative="1" as="geometry">
            <mxPoint x="530" y="810" as="sourcePoint" />
            <mxPoint x="580" y="760" as="targetPoint" />
            <Array as="points">
              <mxPoint x="470" y="840" />
            </Array>
          </mxGeometry>
        </mxCell>
        <mxCell id="ivR9pGTx3db8OLxC2Kuk-41" value="" style="endArrow=none;html=1;rounded=0;" edge="1" parent="1">
          <mxGeometry width="50" height="50" relative="1" as="geometry">
            <mxPoint x="1430" y="750" as="sourcePoint" />
            <mxPoint x="1430" y="150" as="targetPoint" />
          </mxGeometry>
        </mxCell>
        <mxCell id="ivR9pGTx3db8OLxC2Kuk-43" value="Utente" style="text;html=1;strokeColor=none;fillColor=none;align=center;verticalAlign=middle;whiteSpace=wrap;rounded=0;fontSize=21;" vertex="1" parent="1">
          <mxGeometry x="1360" y="80" width="140" height="70" as="geometry" />
        </mxCell>
        <mxCell id="ivR9pGTx3db8OLxC2Kuk-44" value="" style="endArrow=none;html=1;rounded=0;" edge="1" parent="1">
          <mxGeometry width="50" height="50" relative="1" as="geometry">
            <mxPoint x="1820" y="750" as="sourcePoint" />
            <mxPoint x="1820" y="150" as="targetPoint" />
          </mxGeometry>
        </mxCell>
        <mxCell id="ivR9pGTx3db8OLxC2Kuk-45" value="Applicazione" style="text;html=1;strokeColor=none;fillColor=none;align=center;verticalAlign=middle;whiteSpace=wrap;rounded=0;fontSize=21;" vertex="1" parent="1">
          <mxGeometry x="1750" y="80" width="140" height="70" as="geometry" />
        </mxCell>
        <mxCell id="ivR9pGTx3db8OLxC2Kuk-46" value="" style="endArrow=none;html=1;rounded=0;" edge="1" parent="1">
          <mxGeometry width="50" height="50" relative="1" as="geometry">
            <mxPoint x="2170" y="750" as="sourcePoint" />
            <mxPoint x="2170" y="150" as="targetPoint" />
          </mxGeometry>
        </mxCell>
        <mxCell id="ivR9pGTx3db8OLxC2Kuk-47" value="Applicazione" style="text;html=1;strokeColor=none;fillColor=none;align=center;verticalAlign=middle;whiteSpace=wrap;rounded=0;fontSize=21;" vertex="1" parent="1">
          <mxGeometry x="2100" y="80" width="140" height="70" as="geometry" />
        </mxCell>
        <mxCell id="ivR9pGTx3db8OLxC2Kuk-50" value="" style="endArrow=classic;html=1;rounded=0;" edge="1" parent="1">
          <mxGeometry width="50" height="50" relative="1" as="geometry">
            <mxPoint x="1450" y="200" as="sourcePoint" />
            <mxPoint x="1810" y="200" as="targetPoint" />
          </mxGeometry>
        </mxCell>
        <mxCell id="ivR9pGTx3db8OLxC2Kuk-51" value="Apertura applicazione" style="text;html=1;strokeColor=none;fillColor=none;align=center;verticalAlign=middle;whiteSpace=wrap;rounded=0;fontSize=10;" vertex="1" parent="1">
          <mxGeometry x="1470" y="170" width="320" height="20" as="geometry" />
        </mxCell>
        <mxCell id="ivR9pGTx3db8OLxC2Kuk-52" value="" style="endArrow=none;html=1;rounded=0;" edge="1" parent="1">
          <mxGeometry width="50" height="50" relative="1" as="geometry">
            <mxPoint x="2528.52" y="750" as="sourcePoint" />
            <mxPoint x="2528.52" y="150" as="targetPoint" />
          </mxGeometry>
        </mxCell>
        <mxCell id="ivR9pGTx3db8OLxC2Kuk-53" value="SQL" style="text;html=1;strokeColor=none;fillColor=none;align=center;verticalAlign=middle;whiteSpace=wrap;rounded=0;fontSize=21;" vertex="1" parent="1">
          <mxGeometry x="2459" y="80" width="140" height="70" as="geometry" />
        </mxCell>
        <mxCell id="ivR9pGTx3db8OLxC2Kuk-54" value="" style="endArrow=classic;html=1;rounded=0;" edge="1" parent="1">
          <mxGeometry width="50" height="50" relative="1" as="geometry">
            <mxPoint x="2199" y="205" as="sourcePoint" />
            <mxPoint x="2510" y="205" as="targetPoint" />
          </mxGeometry>
        </mxCell>
        <mxCell id="ivR9pGTx3db8OLxC2Kuk-55" value="Richiesta tutti nome delle aziende" style="text;html=1;strokeColor=none;fillColor=none;align=center;verticalAlign=middle;whiteSpace=wrap;rounded=0;fontSize=10;" vertex="1" parent="1">
          <mxGeometry x="2199" y="180" width="300" height="20" as="geometry" />
        </mxCell>
        <mxCell id="ivR9pGTx3db8OLxC2Kuk-56" value="" style="endArrow=classic;html=1;rounded=0;" edge="1" parent="1">
          <mxGeometry width="50" height="50" relative="1" as="geometry">
            <mxPoint x="2510" y="260" as="sourcePoint" />
            <mxPoint x="2199" y="260" as="targetPoint" />
          </mxGeometry>
        </mxCell>
        <mxCell id="ivR9pGTx3db8OLxC2Kuk-57" value="Restituzione dei nome delle aziende collegate ai proprietari" style="text;html=1;strokeColor=none;fillColor=none;align=center;verticalAlign=middle;whiteSpace=wrap;rounded=0;fontSize=10;" vertex="1" parent="1">
          <mxGeometry x="2199" y="234.6" width="300" height="20" as="geometry" />
        </mxCell>
        <mxCell id="ivR9pGTx3db8OLxC2Kuk-58" value="" style="endArrow=classic;html=1;rounded=0;" edge="1" parent="1">
          <mxGeometry width="50" height="50" relative="1" as="geometry">
            <mxPoint x="2151" y="260" as="sourcePoint" />
            <mxPoint x="1830" y="260" as="targetPoint" />
          </mxGeometry>
        </mxCell>
        <mxCell id="ivR9pGTx3db8OLxC2Kuk-59" value="Disegnare l&#39;interfaccia con i pulsanti con scritti dentro i nomi delle azienda" style="text;html=1;strokeColor=none;fillColor=none;align=center;verticalAlign=middle;whiteSpace=wrap;rounded=0;fontSize=10;" vertex="1" parent="1">
          <mxGeometry x="1840" y="230" width="300" height="24.6" as="geometry" />
        </mxCell>
        <mxCell id="ivR9pGTx3db8OLxC2Kuk-60" value="" style="endArrow=classic;html=1;rounded=0;" edge="1" parent="1">
          <mxGeometry width="50" height="50" relative="1" as="geometry">
            <mxPoint x="1450" y="360" as="sourcePoint" />
            <mxPoint x="1800" y="360" as="targetPoint" />
          </mxGeometry>
        </mxCell>
        <mxCell id="ivR9pGTx3db8OLxC2Kuk-61" value="Seleziona un pulsante" style="text;html=1;strokeColor=none;fillColor=none;align=center;verticalAlign=middle;whiteSpace=wrap;rounded=0;fontSize=10;" vertex="1" parent="1">
          <mxGeometry x="1460" y="330" width="320" height="20" as="geometry" />
        </mxCell>
        <mxCell id="ivR9pGTx3db8OLxC2Kuk-62" value="" style="endArrow=classic;html=1;rounded=0;" edge="1" parent="1">
          <mxGeometry width="50" height="50" relative="1" as="geometry">
            <mxPoint x="2208.5" y="353.93" as="sourcePoint" />
            <mxPoint x="2509.5" y="353.93" as="targetPoint" />
          </mxGeometry>
        </mxCell>
        <mxCell id="ivR9pGTx3db8OLxC2Kuk-63" value="chiede al database le variabili del proprietario e dell&#39;azienda&amp;nbsp;" style="text;html=1;strokeColor=none;fillColor=none;align=center;verticalAlign=middle;whiteSpace=wrap;rounded=0;fontSize=10;" vertex="1" parent="1">
          <mxGeometry x="2188.5" y="323.93" width="320" height="20" as="geometry" />
        </mxCell>
        <mxCell id="ivR9pGTx3db8OLxC2Kuk-67" value="" style="endArrow=classic;html=1;rounded=0;" edge="1" parent="1">
          <mxGeometry width="50" height="50" relative="1" as="geometry">
            <mxPoint x="2510" y="425.4" as="sourcePoint" />
            <mxPoint x="2199" y="425.4" as="targetPoint" />
          </mxGeometry>
        </mxCell>
        <mxCell id="ivR9pGTx3db8OLxC2Kuk-68" value="restituisce le stringhe di sql crude (raw)" style="text;html=1;strokeColor=none;fillColor=none;align=center;verticalAlign=middle;whiteSpace=wrap;rounded=0;fontSize=10;" vertex="1" parent="1">
          <mxGeometry x="2199" y="400" width="300" height="20" as="geometry" />
        </mxCell>
        <mxCell id="ivR9pGTx3db8OLxC2Kuk-69" value="" style="endArrow=classic;html=1;rounded=0;" edge="1" parent="1">
          <mxGeometry width="50" height="50" relative="1" as="geometry">
            <mxPoint x="2150.5" y="423.93000000000006" as="sourcePoint" />
            <mxPoint x="1829.5" y="423.93000000000006" as="targetPoint" />
          </mxGeometry>
        </mxCell>
        <mxCell id="ivR9pGTx3db8OLxC2Kuk-70" value="Disegnare l&#39;interfaccia con i pulsanti con scritti dentro i nomi delle azienda" style="text;html=1;strokeColor=none;fillColor=none;align=center;verticalAlign=middle;whiteSpace=wrap;rounded=0;fontSize=10;" vertex="1" parent="1">
          <mxGeometry x="1839.5" y="393.93000000000006" width="300" height="24.6" as="geometry" />
        </mxCell>
        <mxCell id="ivR9pGTx3db8OLxC2Kuk-71" value="" style="endArrow=classic;html=1;rounded=0;" edge="1" parent="1">
          <mxGeometry width="50" height="50" relative="1" as="geometry">
            <mxPoint x="1790" y="424.6700000000001" as="sourcePoint" />
            <mxPoint x="1460" y="425" as="targetPoint" />
          </mxGeometry>
        </mxCell>
        <mxCell id="ivR9pGTx3db8OLxC2Kuk-72" value="L&#39;utente vede le due box di testo modificate generate in automatico da java con le informazioni necessarie" style="text;html=1;strokeColor=none;fillColor=none;align=center;verticalAlign=middle;whiteSpace=wrap;rounded=0;fontSize=10;" vertex="1" parent="1">
          <mxGeometry x="1479" y="394.6700000000001" width="300" height="24.6" as="geometry" />
        </mxCell>
        <mxCell id="ivR9pGTx3db8OLxC2Kuk-73" value="" style="endArrow=none;html=1;rounded=0;fillColor=#f8cecc;strokeColor=#b85450;strokeWidth=5;" edge="1" parent="1">
          <mxGeometry width="50" height="50" relative="1" as="geometry">
            <mxPoint x="1405" y="300" as="sourcePoint" />
            <mxPoint x="2613.3333333333335" y="300" as="targetPoint" />
          </mxGeometry>
        </mxCell>
        <mxCell id="ivR9pGTx3db8OLxC2Kuk-74" value="" style="endArrow=none;html=1;rounded=0;fillColor=#f8cecc;strokeColor=#b85450;strokeWidth=5;" edge="1" parent="1">
          <mxGeometry width="50" height="50" relative="1" as="geometry">
            <mxPoint x="1390.67" y="500" as="sourcePoint" />
            <mxPoint x="2599.0033333333336" y="500" as="targetPoint" />
          </mxGeometry>
        </mxCell>
        <mxCell id="ivR9pGTx3db8OLxC2Kuk-75" value="" style="endArrow=classic;html=1;rounded=0;" edge="1" parent="1">
          <mxGeometry width="50" height="50" relative="1" as="geometry">
            <mxPoint x="1448.5" y="571.0699999999999" as="sourcePoint" />
            <mxPoint x="1798.5" y="571.0699999999999" as="targetPoint" />
          </mxGeometry>
        </mxCell>
        <mxCell id="ivR9pGTx3db8OLxC2Kuk-76" value="Imissione di una stringa di testo nel campo di ricerca&lt;br&gt;pressima del pulsanete &quot;ricerca&quot;" style="text;html=1;strokeColor=none;fillColor=none;align=center;verticalAlign=middle;whiteSpace=wrap;rounded=0;fontSize=10;" vertex="1" parent="1">
          <mxGeometry x="1458.5" y="541.0699999999999" width="320" height="20" as="geometry" />
        </mxCell>
        <mxCell id="ivR9pGTx3db8OLxC2Kuk-77" value="" style="endArrow=classic;html=1;rounded=0;" edge="1" parent="1">
          <mxGeometry width="50" height="50" relative="1" as="geometry">
            <mxPoint x="2207" y="565" as="sourcePoint" />
            <mxPoint x="2508" y="565" as="targetPoint" />
          </mxGeometry>
        </mxCell>
        <mxCell id="ivR9pGTx3db8OLxC2Kuk-78" value="chiede al database di cercare il testo contenente il nome dell&#39;azienda" style="text;html=1;strokeColor=none;fillColor=none;align=center;verticalAlign=middle;whiteSpace=wrap;rounded=0;fontSize=10;" vertex="1" parent="1">
          <mxGeometry x="2187" y="535" width="320" height="20" as="geometry" />
        </mxCell>
        <mxCell id="ivR9pGTx3db8OLxC2Kuk-79" value="" style="endArrow=classic;html=1;rounded=0;" edge="1" parent="1">
          <mxGeometry width="50" height="50" relative="1" as="geometry">
            <mxPoint x="2510" y="669.1700000000001" as="sourcePoint" />
            <mxPoint x="2199" y="669.1700000000001" as="targetPoint" />
          </mxGeometry>
        </mxCell>
        <mxCell id="ivR9pGTx3db8OLxC2Kuk-80" value="restituisce il nome oppure&lt;br&gt;&lt;br&gt;restituisce una stringa con scritto &quot;azienda non trovata&quot;" style="text;html=1;strokeColor=none;fillColor=none;align=center;verticalAlign=middle;whiteSpace=wrap;rounded=0;fontSize=10;" vertex="1" parent="1">
          <mxGeometry x="2199" y="610" width="300" height="53.77" as="geometry" />
        </mxCell>
        <mxCell id="ivR9pGTx3db8OLxC2Kuk-81" value="" style="endArrow=classic;html=1;rounded=0;" edge="1" parent="1">
          <mxGeometry width="50" height="50" relative="1" as="geometry">
            <mxPoint x="2150.5" y="667.7" as="sourcePoint" />
            <mxPoint x="1829.5" y="667.7" as="targetPoint" />
          </mxGeometry>
        </mxCell>
        <mxCell id="ivR9pGTx3db8OLxC2Kuk-82" value="fa vedere nella lista come unico pulsante quello dell&#39;azienda cercata&lt;br&gt;&lt;br&gt;visualizza nelle caselle di testo la stringa &quot;azienda non trovata&quot;" style="text;html=1;strokeColor=none;fillColor=none;align=center;verticalAlign=middle;whiteSpace=wrap;rounded=0;fontSize=10;" vertex="1" parent="1">
          <mxGeometry x="1839.5" y="600" width="300" height="62.3" as="geometry" />
        </mxCell>
        <mxCell id="ivR9pGTx3db8OLxC2Kuk-83" value="" style="endArrow=classic;html=1;rounded=0;" edge="1" parent="1">
          <mxGeometry width="50" height="50" relative="1" as="geometry">
            <mxPoint x="1790" y="668.44" as="sourcePoint" />
            <mxPoint x="1460" y="668.77" as="targetPoint" />
          </mxGeometry>
        </mxCell>
        <mxCell id="ivR9pGTx3db8OLxC2Kuk-84" value="l&#39;utente premendo il pusante vede le informazioni dell&#39;azienda&lt;br&gt;&lt;br&gt;&lt;b&gt;ANDARE AL FUNZIONAMENTO 1&lt;/b&gt;" style="text;html=1;strokeColor=none;fillColor=none;align=center;verticalAlign=middle;whiteSpace=wrap;rounded=0;fontSize=10;" vertex="1" parent="1">
          <mxGeometry x="1479" y="600" width="300" height="63.04" as="geometry" />
        </mxCell>
        <mxCell id="ivR9pGTx3db8OLxC2Kuk-86" value="FUNZIONAMENTO 1" style="text;html=1;strokeColor=none;fillColor=none;align=center;verticalAlign=middle;whiteSpace=wrap;rounded=0;fontSize=18;fontStyle=1" vertex="1" parent="1">
          <mxGeometry x="2630" y="170" width="170" height="110" as="geometry" />
        </mxCell>
        <mxCell id="ivR9pGTx3db8OLxC2Kuk-87" value="FUNZIONAMENTO 2" style="text;html=1;strokeColor=none;fillColor=none;align=center;verticalAlign=middle;whiteSpace=wrap;rounded=0;fontSize=18;fontStyle=1" vertex="1" parent="1">
          <mxGeometry x="2630" y="340" width="170" height="110" as="geometry" />
        </mxCell>
        <mxCell id="ivR9pGTx3db8OLxC2Kuk-88" value="FUNZIONAMENTO 3" style="text;html=1;strokeColor=none;fillColor=none;align=center;verticalAlign=middle;whiteSpace=wrap;rounded=0;fontSize=18;fontStyle=1" vertex="1" parent="1">
          <mxGeometry x="2630" y="553.77" width="170" height="110" as="geometry" />
        </mxCell>
        <mxCell id="ivR9pGTx3db8OLxC2Kuk-89" value="chiave esterna" style="text;html=1;strokeColor=none;fillColor=none;align=left;verticalAlign=middle;whiteSpace=wrap;rounded=0;fontFamily=Verdana;fontSize=13;rotation=90;fontStyle=1" vertex="1" parent="1">
          <mxGeometry x="415" y="795" width="138" height="20" as="geometry" />
        </mxCell>
      </root>
    </mxGraphModel>
  </diagram>
</mxfile>
